<svg xmlns="http://www.w3.org/2000/svg" id="Layer_2" data-name="Layer 2" viewBox="0 0 1214.79 2218.01"><defs><style>.cls-1{fill:none}</style></defs><path d="m707.57 384.28 149.04 174.95 176.08-59.01a10.84 10.84 0 0 1-.06-5.1L709.68 381.24a10.85 10.85 0 0 1-2.1 3.04ZM888.32 611.37l-153.24-5.34c-.09.71-.25 1.41-.49 2.12-.95 2.79-2.92 4.94-5.36 6.18l26.33 56.23 133.26-56.52c-.28-.86-.45-1.76-.5-2.67ZM586.64 732.33c1.23-.02 2.47.15 3.7.57 1.27.43 2.4 1.09 3.38 1.89l121.86-123.61c-.53-.71-.97-1.48-1.31-2.29l-136.59 43.46 8.95 79.99ZM593.08 752.09a10.9 10.9 0 0 1-6.4 1.98l-10.56 98.14-16.35 151.85c.15.04.31.08.46.13 2.17.74 3.96 2.1 5.23 3.81l153.05-108.23-125.43-147.68ZM716.47 597.1c1.53-1.59 3.51-2.67 5.66-3.1l-22.18-206.43c-1.21.02-2.44-.15-3.65-.57-.36-.12-.71-.26-1.05-.42l-76.36 132.36 97.58 78.15ZM1033.36 502.11l-175.34 58.77 34.9 40.97a10.84 10.84 0 0 1 14.15 1.42L956 564.88l78.16-61.33c-.3-.46-.57-.94-.8-1.44ZM701.95 387.34l22.18 206.43c1.21-.02 2.44.16 3.65.57 3 1.02 5.25 3.22 6.44 5.91l120.34-40.33-148.52-174.34c-1.23.86-2.62 1.47-4.1 1.77ZM713.99 601.15c.31-.9.73-1.72 1.23-2.48l-97.34-77.96-39.75 68.9a10.89 10.89 0 0 1 4.59 8.79l131.04 3.57c.07-.27.14-.55.23-.82ZM800.06 1008.26l-232.37 7.21h-.13c-.08.84-.24 1.68-.52 2.51a10.83 10.83 0 0 1-3.69 5.14l46.26 83.9 191.11-96.13c-.33-.84-.55-1.72-.66-2.63ZM537.92 450.62c-.31.9-.73 1.72-1.23 2.48l80.61 64.57 76.21-132.1a10.885 10.885 0 0 1-3.36-3.85l-152.14 62.24c.64 2.1.67 4.42-.1 6.66ZM727.36 615.07c-2.08.62-4.36.62-6.57-.13-1.28-.44-2.42-1.1-3.41-1.91l-122.2 123.19c.47.57.89 1.18 1.24 1.83l157.29-66.71-26.35-56.27ZM734.86 602.16c.14.59.24 1.18.27 1.79l96.55 3.41 56.7 2a10.845 10.845 0 0 1 3.01-6.2l-35.43-41.59-121.1 40.59ZM524.61 1152.02c.11 1.41-.07 2.87-.55 4.3-.29.87-.7 1.66-1.17 2.4l121.63 28.59v-.02c.77-2.28 2.24-4.12 4.07-5.4l-39.81-72.2-84.17 42.34ZM803.89 303.99c-1.77-.6-3.28-1.61-4.47-2.89l-89.14 68.76 112.9-61.18-8.27-7.15c-2.84 2.72-7.05 3.81-11.03 2.46ZM585.93 293.83l113.18-.58.37-96.78c-.82-.08-1.64-.24-2.45-.52-1.56-.53-2.9-1.38-4.02-2.45L583.9 288.22c1.17 1.63 1.89 3.57 2.02 5.61ZM709.78 372.42c.91 2.13 1.15 4.54.55 6.92l322.44 113.7.68-.25c.27-.55.57-1.07.92-1.56L824.81 310.08l-115.03 62.34ZM815.99 822.05l-219.22-74.43c-.54 1.21-1.28 2.26-2.16 3.17L720.15 898.6l97-68.59a10.836 10.836 0 0 1-1.16-7.96ZM427.51 231.59l96.42 205.31c2.24-.81 4.76-.9 7.19-.07 2.76.94 4.89 2.88 6.14 5.27l152.14-62.24c-.64-2.1-.67-4.42.1-6.66.1-.31.23-.6.35-.89l-258.97-144.1c-.87 1.38-2.02 2.53-3.36 3.38ZM675.7 362.14l-92.42-60.44a10.914 10.914 0 0 1-9.67 3.63l102.1 56.81ZM524.25 1149.95l83.56-42.03-46.17-83.73a10.83 10.83 0 0 1-6.34 1.08l-37.56 117.45a10.86 10.86 0 0 1 6.5 7.23ZM713.67 606.97c-.21-.97-.3-1.98-.23-3l-130.9-3.56c-.1.53-.22 1.05-.39 1.57-1.42 4.18-5.14 6.93-9.27 7.32l4.59 41.01 136.21-43.34ZM575.34 588.18c.36.12.71.26 1.05.42l39.9-69.17-80.85-64.76a10.937 10.937 0 0 1-3.82 2.56l38.16 130.58c1.8-.35 3.71-.26 5.57.37ZM651.33 1201.08c-.86-.29-1.65-.69-2.39-1.16l-47.4 63.08 107.95 129.52c.68-.47 1.41-.86 2.18-1.17l-54.98-189.86c-1.74.3-3.57.19-5.36-.42ZM801.62 1012.69l-191.04 96.09 39.76 72.11c2.43-1.1 5.26-1.33 7.98-.4.93.32 1.79.76 2.57 1.28l142.18-167.25c-.55-.56-1.04-1.17-1.45-1.83ZM566.51 1009.72c.57 1.17.93 2.44 1.05 3.75l232.44-7.22c.06-.94.23-1.89.55-2.83.54-1.59 1.42-2.97 2.53-4.1l-83.26-98.02-153.31 108.41ZM644.06 1189.26l-18.52-4.35-104.04-24.45c-.99 1.01-2.17 1.8-3.46 2.35l82.18 98.6 47.14-62.73c-2.52-2.39-3.8-5.89-3.3-9.42ZM277.25 52.63c-.48-.09-.95-.21-1.42-.37-.24-.08-.48-.18-.71-.28L164.8 258.75l75.19 122.02a10.85 10.85 0 0 1 4.65-1.21l32.61-326.93ZM234.69 386.93c.71-2.09 1.99-3.81 3.61-5.07L163.71 260.8l-62.4 116.94c3.08 1.96 4.95 5.34 5.02 8.94l127.88 2.29c.09-.68.25-1.37.48-2.04ZM273.35 51.04c-3.13-2.06-4.98-5.6-4.9-9.32L21.51 13.12a10.775 10.775 0 0 1-4.1 6.44l146.16 237.2L273.34 51.03ZM889.6 615.89l-133.2 56.49 66.48 141.98c1.94-.7 4.09-.86 6.21-.35l65.64-193.34a10.87 10.87 0 0 1-5.14-4.78ZM458.13 2059.31c.72.65 1.34 1.39 1.85 2.2l185.63-95.35a10.81 10.81 0 0 1-.21-7.55c.99-2.9 3.08-5.11 5.65-6.33l-36.59-100.32-156.33 207.34ZM561.55 594.98c.17-.51.39-1 .63-1.47l-102.02-64.94-145.63 172.51c.74.76 1.37 1.61 1.86 2.54L561.47 601.7c-.66-2.12-.69-4.46.08-6.72ZM719.13 1391.17c5.18 1.76 8.15 7.03 7.19 12.25l172.94 48.47c.46-1.21 1.11-2.29 1.92-3.22l-156.82-163.23-25.24 105.74ZM448.69 2056.69c1.81-.36 3.74-.28 5.62.36.33.11.66.24.97.39l137.39-242.2c-1.9-1.32-3.3-3.2-4.04-5.33l-198.59 49.48 58.65 197.3ZM214.67 1912.3c-1.02.16-2.07.19-3.12.05l-14.16 110.86-11.58 90.69c.7.09 1.4.25 2.09.49 3.59 1.22 6.12 4.13 7.02 7.54l98.68-21.45-78.93-188.18ZM520.26 439.12c.57-.52 1.19-.97 1.85-1.36L425.72 232.5c-2.33.93-4.98 1.08-7.54.21a10.86 10.86 0 0 1-3.71-2.15l-60.99 57.79 166.77 150.76ZM502.51 1375.01l-110.39-94.29-71.24 74.06a10.9 10.9 0 0 1 2.65 7.15l177.2 17.29c.09-.48.21-.97.37-1.45.34-1.01.83-1.94 1.42-2.77ZM542.72 1018.38l-160.85 32.9c.17 1.53.03 3.12-.5 4.68-.23.68-.52 1.31-.87 1.91l16.9 11.89 145.32-51.38ZM703.29 366.4c1.77.6 3.28 1.61 4.47 2.89l90.45-69.77c-.9-1.43-1.47-3.06-1.63-4.76l-95.47.49-.27 70.63c.82.08 1.64.24 2.45.52ZM597.2 739.9c.59 1.84.7 3.85.22 5.83l219.22 74.43a10.83 10.83 0 0 1 4.43-4.94l-66.51-142.05-157.36 66.74ZM797.09 290.2c.45-1.32 1.13-2.49 1.97-3.49l-91.65-92.66a10.848 10.848 0 0 1-5.93 2.43l-.37 96.76 95.45-.49c.07-.85.24-1.7.53-2.55ZM518.7 1373.23a10.89 10.89 0 0 1 3.56 8.12l144.7 14.31 38.01 3.76c.09-.48.21-.96.37-1.43.55-1.63 1.46-3.03 2.6-4.17L600.3 1264.66l-81.6 108.58ZM698.83 365.86l.27-70.61-113.22.58c-.09.74-.25 1.48-.5 2.22-.24.72-.55 1.39-.92 2.02l106.83 69.86c1.86-2.33 4.59-3.8 7.54-4.07ZM515.97 1163.46c-.95.2-1.93.27-2.92.2l-.62 206.79c.82.08 1.64.24 2.46.52.79.27 1.52.62 2.2 1.04l81.88-108.96-83.01-99.6ZM388.58 1505.48c.27 1.69.15 3.46-.44 5.2-.3.89-.72 1.7-1.2 2.45l178.52 123.64c1.29-1.54 2.97-2.67 4.85-3.31l-40.95-172.29-140.77 44.31ZM375.33 1775.54c.91 1.63 1.4 3.49 1.37 5.4l211.53 23.2c.09-.44.2-.88.35-1.32.62-1.84 1.69-3.39 3.04-4.6l-82.23-110.9-134.07 88.22ZM563.48 1640.25c.22-.65.5-1.26.83-1.84L385.68 1514.7c-.33.35-.69.67-1.06.97l125.25 168.93 54.31-35.74a10.852 10.852 0 0 1-.71-8.6ZM595.38 1816.61c-.33-.11-.66-.24-.97-.39l-135.12 238.2 154.35-204.71-12-32.89c-2 .53-4.16.5-6.26-.22ZM577.49 737.64a10.87 10.87 0 0 1 7.15-5.09l-8.91-79.59-98.34 31.29c.55 1.87.59 3.9.05 5.9l100.05 47.49ZM704.77 1401.41l-182.71-18.06c-.09.48-.21.96-.37 1.43-1.13 3.33-3.73 5.75-6.82 6.8l15.93 67.03 174.21-54.84c-.17-.77-.25-1.56-.25-2.36ZM316.16 1351.59c1.23.42 2.32 1.04 3.28 1.8l71.16-73.97L228.54 1141c-.78.76-1.66 1.39-2.62 1.88l83.65 208.6c2.09-.62 4.38-.63 6.59.12ZM299.83 235.38c-.38 1.12-.92 2.12-1.59 3.02L352 287l61.11-57.91c-1.16-1.5-1.92-3.28-2.19-5.17l-110.52 8.17c-.02 1.09-.2 2.2-.58 3.29ZM310.28 698.41c.99.34 1.9.81 2.72 1.38l145.46-172.3-204.88-130.42a10.874 10.874 0 0 1-5.86 3.87l57.98 296.95c1.5-.15 3.06 0 4.58.51ZM98.96 376.61c.19.07.37.15.56.22l62.96-118.01L15.71 20.62c-.48.24-.98.43-1.49.59l79.26 355c1.77-.33 3.65-.23 5.48.39ZM456.67 683.8c1.93-5.69 8.11-8.73 13.79-6.8 1.45.49 2.72 1.26 3.78 2.22l88.54-74.75c-.19-.29-.37-.6-.54-.91L317.16 705.48c.08.26.15.53.22.8l138.73-18.54c-.05-1.3.12-2.63.56-3.93ZM381.46 1049.31l164.48-33.64c-.17-1.53-.03-3.12.5-4.68 1.18-3.46 3.93-5.94 7.18-6.91L469.37 697.9c-1.59.36-3.27.38-4.94-.02l-89.67 344.37c3.34 1.21 5.74 3.89 6.7 7.07ZM823.07 834.88c-1.92-.65-3.53-1.79-4.76-3.23l-96.85 68.49 83.14 97.89a10.88 10.88 0 0 1 6.17-1.97l13.86-160.78c-.52-.1-1.05-.22-1.57-.39ZM255.81 391.4l261.41 52.61c.04-.13.06-.25.11-.38.38-1.12.93-2.12 1.59-3.02L352.03 289.74l-98.79 93.62c1.88 2.19 2.84 5.09 2.57 8.04ZM564.73 291.25 450.27 236.7l116.45 64.8a10.852 10.852 0 0 1-1.99-10.25ZM896.13 622.82 831 814.66c.24.11.48.23.71.35l103.51-156.24-39.09-35.95ZM1036.41 506.02c-.35-.28-.69-.58-1-.9L908.3 604.85c1.73 2.69 2.27 6.12 1.16 9.39-1.71 5.03-6.73 7.98-11.8 7.27l38.67 35.57 100.07-151.05ZM993.14 226.13c-2.36-.8-4.25-2.34-5.54-4.26l-160.9 87.19 208.99 180.66c1.34-1.29 2.99-2.21 4.78-2.68l-43.06-260.36c-1.41.1-2.85-.07-4.27-.55ZM817.69 297.19c-.35 1.04-.85 1.98-1.45 2.83l8.84 7.64 154.48-83.72-161.78 66.56c.65 2.11.68 4.43-.09 6.68ZM395.07 1070.58l-15.74-11.07c-2.8 3.29-7.43 4.73-11.77 3.25-2.37-.8-4.27-2.35-5.56-4.29l-129.09 69.43 162.16-57.33ZM833.38 816.12c1.16.94 2.11 2.09 2.79 3.38l188.49-78.47-87.94-80.88-103.33 155.97ZM744.92 1283.11l157.72 164.17c1-.8 2.13-1.41 3.34-1.81l-98.65-423.87-62.42 261.51ZM1039.73 507.86c-.58-.2-1.12-.45-1.64-.73L937.84 658.45l87.8 80.75 15.85-230.92c-.59-.1-1.17-.23-1.75-.43ZM1194.11 435.55 1049.8 488.9c3.63 2.75 5.27 7.61 3.73 12.16-1.51 4.44-5.61 7.26-10.04 7.37l-15.69 228.63 169.88-297.3a10.79 10.79 0 0 1-3.56-4.21ZM898.73 1453.82l-172.94-48.47c-2.08 5.43-8.09 8.3-13.64 6.41-.38-.13-.75-.28-1.11-.45L580.12 1634.9c1.03.74 1.91 1.65 2.61 2.68l316.76-177.4c-.87-1.95-1.16-4.16-.76-6.36ZM469.64 2107.2l32.56 73.19c2.19-.74 4.62-.81 6.98 0 .56.19 1.09.43 1.6.7l138.14-210.48c-.42-.33-.82-.69-1.18-1.08l-178.1 137.67ZM387.51 1857.95l-19.75-66.44c-1.76.32-3.62.21-5.43-.4-1.78-.61-3.31-1.63-4.5-2.92L222.18 1895.8c.58.93 1.02 1.95 1.3 3.02l164.03-40.87ZM334.53 2198.04l-40.13-95.67-99.14 21.55c.1 1.41-.07 2.85-.55 4.27-.2.6-.46 1.16-.76 1.7l137.28 71.53c.85-1.38 1.98-2.52 3.29-3.37ZM381.34 1496.88c1.52.51 2.84 1.34 3.93 2.37l117.57-111.26c-1.5-1.91-2.33-4.29-2.32-6.76l-177.2-17.29c-.09.48-.21.97-.37 1.45-.89 2.64-2.71 4.69-4.96 5.96l56.33 125.55c2.19-.75 4.64-.82 7.01-.02ZM598.22 1795.46c1.37-.08 2.78.09 4.16.55 3.8 1.29 6.41 4.48 7.16 8.15l31.5-3.36c-.02-1.21.16-2.44.57-3.65.84-2.49 2.5-4.47 4.57-5.75l-68.46-137.52c-.42.16-.85.29-1.28.4l21.8 141.17ZM495.39 2187.18c.9-2.65 2.72-4.71 4.98-5.98l-32.36-72.74-118.98 91.97c.95 1.22 1.63 2.64 2 4.14l143.79-13.86c0-1.17.17-2.36.57-3.54ZM223.26 1905.06c-.41 1.19-1.01 2.26-1.74 3.2l220.95 152.12c1.16-1.39 2.64-2.46 4.3-3.12l-58.68-197.39-164.28 40.93c.1 1.4-.07 2.84-.55 4.25ZM231.82 1132.92l271.22 18.18c.1-.59.23-1.18.43-1.77.23-.68.52-1.31.87-1.91L397.1 1072l-165.59 58.54c.2.77.3 1.57.32 2.38ZM505.54 1159.93c-1.63-1.89-2.57-4.3-2.64-6.82l-271.22-18.18c-.1.59-.23 1.18-.43 1.77a10.95 10.95 0 0 1-1.41 2.77l162.15 138.5 113.55-118.04ZM515.83 1142.16l37.52-117.34-.1-.03c-2.94-1-5.16-3.13-6.37-5.75l-147.46 52.13 106.08 74.6c2.5-2.93 6.43-4.38 10.34-3.62ZM510.42 1370.45l.62-207.11c-.26-.07-.52-.13-.78-.22-1.23-.42-2.32-1.04-3.28-1.81l-113.47 117.96 110.3 94.21c1.78-1.73 4.12-2.81 6.61-3.04ZM557.8 1003.67l26.89-249.83c-.45-.09-.9-.2-1.34-.35-5.69-1.93-8.73-8.11-6.8-13.8l.09-.24-99.9-47.42c-1.16 2.4-3.13 4.22-5.46 5.23l84.31 306.41c.72-.08 1.46-.08 2.2-.01ZM388.08 1503.53l140.81-44.32-15.96-67.17a10.816 10.816 0 0 1-8.7-2.59l-117.62 111.3c.62.85 1.12 1.79 1.48 2.78ZM519.87 454.74c-2.25-2.29-3.41-5.5-3.06-8.77l-261.37-52.6c-.05.18-.09.37-.16.55-.17.51-.39.99-.63 1.46l205.11 130.56 60.11-71.2ZM476.66 682.38l98.85-31.45-4.66-41.63c-.83-.08-1.67-.24-2.5-.52-1.7-.58-3.15-1.54-4.32-2.74L475.6 680.7c.4.53.75 1.1 1.05 1.69ZM287.54 242.57l-39.06 137.56c1.24.42 2.34 1.05 3.31 1.83l98.74-93.57-53.64-48.49a10.837 10.837 0 0 1-9.35 2.67ZM287.95 221.13l-8.92-166.04-32.31 323.93 38.9-137c-5.41-2.09-8.26-8.08-6.38-13.63 1.36-4 4.81-6.68 8.71-7.26ZM369.32 1770.51c1.98.67 3.63 1.87 4.87 3.37l134-88.18-125.26-168.93c-1.46.78-3.1 1.22-4.78 1.27l-11.08 251.97c.75.09 1.5.25 2.24.5ZM567.85 588.37l-38.16-130.58c-1.8.35-3.71.26-5.57-.37-.99-.34-1.9-.81-2.72-1.38l-59.93 70.99 101.78 64.79c1.21-1.56 2.8-2.74 4.59-3.45ZM440.03 2068.66c-.19-1.57-.06-3.21.49-4.81.22-.64.5-1.24.82-1.81l-221.21-152.29c-1.03.9-2.21 1.59-3.48 2.05l78.96 188.26 144.42-31.39ZM570.28 1654.04c-2.04-.69-3.74-1.94-4.99-3.51l-54.22 35.68 82.16 110.81c.93-.56 1.94-.98 3-1.25l-21.8-141.17c-1.37.08-2.78-.09-4.16-.55ZM648.4 1810.95c-.79-.27-1.53-.63-2.22-1.05l-30.28 40.16 37.03 101.54c.49-.13 1-.22 1.51-.28l-3.3-139.82c-.92-.06-1.84-.23-2.75-.54ZM609.18 1809.81c-.99 2.9-3.08 5.11-5.65 6.33l11.55 31.67 29.49-39.12a10.83 10.83 0 0 1-3.33-5.89l-31.5 3.36c.02 1.21-.16 2.44-.57 3.65ZM658.62 1200.97l54.97 189.83c1.16-.22 2.37-.26 3.58-.09l25.54-107-81.12-84.43c-.9.72-1.9 1.29-2.97 1.69ZM705.62 1405.68l-174.35 54.88 40.98 172.42c1.64-.23 3.35-.11 5.03.46.38.13.75.28 1.11.45l130.92-223.59c-1.65-1.19-2.91-2.8-3.68-4.63ZM460.9 2063.3c.94 2.33 1.08 4.99.21 7.55-.9 2.65-2.72 4.71-4.98 5.98l12.68 28.49 177.65-137.33-185.56 95.31ZM343.97 2196.84c.5.17.97.38 1.42.61l97.88-122.28a10.825 10.825 0 0 1-2.81-4.54l-144.06 31.31 39.92 95.16c2.35-.98 5.06-1.15 7.66-.26ZM804.6 1015.82l-142.15 167.22c2.88 2.84 4.06 7.16 2.68 11.24-.47 1.37-1.18 2.58-2.07 3.62l80.22 83.5 63.14-264.54c-.64-.29-1.25-.63-1.81-1.03ZM454.29 2077.64c-2.19.74-4.62.81-6.98 0-.9-.31-1.72-.73-2.48-1.22l-97.73 122.1c.19.14.37.29.55.44l119.52-92.39-12.87-28.94ZM588.14 1807.96c-.09-.6-.14-1.21-.13-1.83l-211.52-23.19c-.09.46-.2.91-.36 1.37-1.08 3.19-3.51 5.55-6.43 6.67l19.77 66.49 198.67-49.5Z" class="cls-1"/><path d="M1207.41 420.55c-5.69-1.93-11.86 1.11-13.79 6.8-.72 2.12-.75 4.3-.21 6.31l-145.86 53.92c-.27-.12-.54-.23-.83-.33-1.42-.48-2.87-.65-4.27-.55l-43.06-260.36c3.41-.9 6.32-3.43 7.54-7.02 1.93-5.69-1.11-11.86-6.8-13.8-5.69-1.93-11.86 1.11-13.8 6.8-.76 2.25-.74 4.57-.09 6.68l-169.23 69.63a10.804 10.804 0 0 0-6.13-5.25c-3.69-1.25-7.58-.4-10.39 1.9l-91.65-92.66c.84-1 1.53-2.17 1.98-3.49 1.93-5.69-1.11-11.86-6.8-13.8-5.69-1.93-11.86 1.11-13.8 6.8-1.17 3.45-.5 7.08 1.47 9.83l-109.11 94.72a10.792 10.792 0 0 0-4.01-2.45c-5.1-1.73-10.59.55-13.06 5.14l-133.5-63.62c1.84-5.65-1.19-11.75-6.84-13.67-5.69-1.93-11.86 1.11-13.79 6.8-.34.99-.51 2-.56 3l-110.57 8.18c-.64-3.82-3.31-7.17-7.23-8.5-1.02-.35-2.05-.53-3.07-.57l-9.05-168.3c3.91-.58 7.36-3.26 8.72-7.26 1.93-5.69-1.11-11.86-6.8-13.79-5.69-1.93-11.86 1.11-13.79 6.8-.14.42-.25.83-.34 1.25L21.75 11.13c.11-4.62-2.77-8.98-7.38-10.55C8.69-1.35 2.51 1.69.58 7.38c-1.93 5.69 1.11 11.86 6.8 13.79 1.62.55 3.28.68 4.87.48l79.29 355.11c-2.9 1.12-5.3 3.47-6.38 6.65-1.93 5.69 1.11 11.86 6.8 13.8 5.69 1.93 11.86-1.11 13.79-6.8.19-.57.32-1.14.42-1.71l127.95 2.29c.22 4.32 3.02 8.27 7.36 9.74 1.41.48 2.85.65 4.25.55l57.99 297c-3.28.97-6.06 3.45-7.24 6.93-1.93 5.69 1.11 11.86 6.8 13.79 5.69 1.93 11.86-1.11 13.8-6.8.44-1.31.61-2.64.56-3.93l138.73-18.54c.82 3.55 3.39 6.61 7.09 7.87l-.97-.25-89.68 344.4c-5.16-.85-10.32 2.12-12.05 7.23-.89 2.63-.71 5.36.3 7.74l-131.05 70.49a10.824 10.824 0 0 0-5.56-4.29c-5.69-1.93-11.86 1.11-13.79 6.8-1.93 5.69 1.11 11.86 6.8 13.8 2.22.75 4.51.74 6.59.12l83.65 208.6a10.831 10.831 0 0 0-5.34 6.17c-1.93 5.69 1.11 11.86 6.8 13.8 2.37.8 4.81.73 7.01-.02l56.33 125.55a10.804 10.804 0 0 0-4.95 5.96c-1.93 5.69 1.11 11.86 6.8 13.79.6.2 1.21.34 1.81.44l-11.08 252.05c-4.24.3-8.09 3.08-9.55 7.35-1.09 3.22-.59 6.6 1.09 9.28l-135.66 107.61c-1.19-1.3-2.72-2.32-4.5-2.93-5.69-1.93-11.86 1.11-13.79 6.8-1.93 5.69 1.11 11.86 6.8 13.79.04.01.08.02.13.04l-25.79 201.93c-4.3.24-8.22 3.03-9.69 7.36-1.93 5.69 1.11 11.86 6.8 13.8 4.42 1.5 9.12-.01 11.91-3.43l137.52 71.65c-.06.14-.12.28-.17.43-1.93 5.69 1.11 11.86 6.8 13.8 5.69 1.93 11.86-1.11 13.79-6.8.46-1.35.63-2.72.56-4.06l143.68-13.85c.71 3.72 3.34 6.96 7.18 8.26 5.69 1.93 11.86-1.11 13.8-6.8 1.51-4.46-.04-9.21-3.52-11.99l138.14-210.48c.51.27 1.04.51 1.6.7 5.69 1.93 11.86-1.11 13.8-6.8 1.93-5.69-1.11-11.86-6.8-13.8-.91-.31-1.83-.48-2.75-.54l-3.29-139.82c4.04-.47 7.65-3.19 9.04-7.3 1.93-5.69-1.11-11.86-6.8-13.8-2.52-.85-5.13-.73-7.42.16l-68.46-137.52c2.07-1.28 3.73-3.26 4.57-5.75.92-2.7.7-5.5-.37-7.91l316.76-177.4c1.28 1.86 3.14 3.35 5.45 4.14 5.69 1.93 11.86-1.11 13.79-6.8 1.93-5.69-1.11-11.86-6.8-13.8-1.66-.56-3.35-.69-4.97-.47l-99.49-427.48c5.36 1.22 10.88-1.79 12.69-7.11 1.93-5.69-1.11-11.86-6.8-13.8-.52-.18-1.04-.3-1.57-.39l13.86-160.78c4.5-.03 8.7-2.87 10.23-7.37.77-2.27.74-4.61.07-6.73l188.44-78.45-.19 2.75 2-3.51 1.13-.47-.57-.52 171.65-300.4c.33.15.66.28 1 .4 5.69 1.93 11.86-1.11 13.79-6.8 1.93-5.69-1.11-11.86-6.8-13.8ZM899.27 1451.89l-172.94-48.47c.96-5.22-2.01-10.49-7.19-12.25l25.24-105.74 156.82 163.23c-.81.93-1.46 2.02-1.92 3.22Zm-711.37 662.5c-.69-.23-1.39-.39-2.09-.49l11.58-90.69 14.16-110.86c1.05.14 2.1.12 3.12-.05l78.93 188.18-98.68 21.45c-.9-3.41-3.43-6.32-7.02-7.54Zm135.63-752.45a10.9 10.9 0 0 0-2.65-7.15l71.24-74.06 110.39 94.29c-.59.83-1.07 1.76-1.42 2.77-.16.48-.28.96-.37 1.45l-177.2-17.29Zm57.83-305.98c.53-1.56.67-3.15.5-4.68l160.85-32.9-145.32 51.38-16.9-11.89c.34-.6.64-1.23.87-1.91Zm-66.83-354.87 145.63-172.51 102.02 64.94c-.24.47-.46.95-.63 1.47-.77 2.26-.74 4.6-.08 6.72L316.39 703.63c-.49-.93-1.11-1.78-1.86-2.54ZM101.31 377.75l62.4-116.94 74.59 121.06c-1.62 1.26-2.9 2.99-3.61 5.07-.23.68-.38 1.36-.48 2.04l-127.88-2.29c-.07-3.6-1.94-6.98-5.02-8.94Zm63.49-119L275.12 51.98c.23.1.47.2.71.28.47.16.95.27 1.42.37l-32.61 326.93c-1.64.05-3.23.47-4.65 1.21L164.8 258.75ZM21.18 14.38c.14-.42.25-.84.34-1.25l246.94 28.6c-.09 3.72 1.77 7.26 4.9 9.32L163.59 256.78 17.41 19.57c1.69-1.27 3.03-3.04 3.76-5.19ZM829.1 814.01c-2.12-.51-4.27-.35-6.21.35l-66.48-141.98 133.2-56.49c1.11 2.06 2.87 3.77 5.14 4.78l-65.64 193.34Zm-183.7 1144.6c-.87 2.56-.72 5.22.21 7.55l-185.63 95.35c-.51-.81-1.13-1.55-1.85-2.2l156.33-207.34 36.59 100.32a10.844 10.844 0 0 0-5.65 6.33Zm-52.73-143.38-137.39 242.2c-.32-.14-.64-.27-.97-.39-1.88-.64-3.8-.72-5.62-.36l-58.65-197.3 198.59-49.48a10.87 10.87 0 0 0 4.04 5.33Zm-133.38 239.2 135.12-238.2c.32.14.64.27.97.39 2.1.71 4.27.74 6.26.22l12 32.89-154.35 204.71Zm129.29-251.61c-.15.44-.26.88-.35 1.32l-211.53-23.2c.02-1.91-.47-3.77-1.37-5.4l134.07-88.22 82.23 110.9a10.773 10.773 0 0 0-3.04 4.6Zm-203.95-287.15c.37-.3.73-.62 1.06-.97l178.63 123.71c-.33.58-.61 1.19-.83 1.84-1 2.96-.65 6.05.71 8.6l-54.31 35.74-125.25-168.93Zm180.82 121.09-178.52-123.64a10.793 10.793 0 0 0 1.64-7.65l140.77-44.31 40.95 172.29c-1.87.63-3.55 1.77-4.85 3.31Zm-50.58-245.19c3.1-1.05 5.69-3.46 6.82-6.8.16-.48.28-.95.37-1.43l182.71 18.06c0 .8.08 1.59.25 2.36l-174.21 54.84-15.93-67.03ZM477.4 684.26l98.34-31.29 8.91 79.59a10.87 10.87 0 0 0-7.15 5.09l-100.05-47.49c.54-2 .5-4.03-.05-5.9Zm107.98-386.2c.25-.74.41-1.48.5-2.22l113.22-.58-.27 70.61c-2.95.26-5.69 1.73-7.54 4.07l-106.83-69.86c.37-.63.68-1.3.92-2.02Zm116.11-101.58c2.18-.2 4.25-1.05 5.93-2.43l91.65 92.66c-.84 1-1.53 2.17-1.97 3.49-.29.84-.45 1.7-.53 2.55l-95.45.49.37-96.76Zm95.08 98.27c.17 1.7.73 3.33 1.63 4.76l-90.45 69.77a10.823 10.823 0 0 0-6.92-3.41l.27-70.63 95.47-.49Zm20.07 525.4-219.22-74.43c.48-1.98.37-3.99-.22-5.83l157.36-66.74 66.51 142.05a10.825 10.825 0 0 0-4.43 4.94Zm-301.75 550.83c-.81-.28-1.64-.44-2.46-.52l.62-206.79c.99.07 1.97 0 2.92-.2l83.01 99.6-81.88 108.96c-.68-.42-1.41-.78-2.2-1.04Zm190.45 27c-.16.47-.28.95-.37 1.43l-38.01-3.76-144.7-14.31c.02-3.1-1.29-6.05-3.56-8.12l81.6-108.58 107.64 129.16a10.733 10.733 0 0 0-2.6 4.17Zm-105.12-136.57-82.18-98.6c1.29-.55 2.46-1.35 3.46-2.35l104.04 24.45 18.52 4.35c-.5 3.53.78 7.04 3.3 9.42l-47.14 62.73Zm44.31-74.13v.02l-121.63-28.59c.47-.74.88-1.53 1.17-2.4.48-1.43.66-2.89.55-4.3l84.17-42.34 39.81 72.2a10.848 10.848 0 0 0-4.07 5.4Zm-81.18-164.16c1.66-1.26 2.97-3.02 3.69-5.14.28-.83.45-1.67.52-2.51h.13l232.37-7.22c.11.9.33 1.79.66 2.63l-191.11 96.13-46.26-83.9Zm19.37-424.72a10.89 10.89 0 0 0-4.59-8.79l39.75-68.9 97.34 77.96c-.5.76-.92 1.58-1.23 2.48-.09.27-.16.54-.23.82l-131.04-3.57Zm12.46 137.82 122.2-123.19c.99.81 2.13 1.47 3.41 1.91 2.21.75 4.49.74 6.57.13l26.35 56.27-157.29 66.71c-.35-.65-.76-1.26-1.24-1.83Zm293.69-128.98c-.24.7-.4 1.41-.49 2.11l-56.7-2-96.55-3.41c-.04-.61-.14-1.2-.27-1.79l121.1-40.59 35.43 41.59c-1.1 1.13-1.98 2.5-2.52 4.09Zm-154.65-6.99c-1.19-2.69-3.44-4.89-6.44-5.91-1.21-.41-2.44-.58-3.65-.57l-22.18-206.43c1.48-.3 2.87-.9 4.1-1.77l148.52 174.34-120.34 40.33ZM696.3 386.99c1.21.41 2.44.58 3.65.57l22.18 206.43a10.94 10.94 0 0 0-5.66 3.1l-97.58-78.15 76.36-132.36c.34.15.69.29 1.05.42Zm19.29 224.18L593.73 734.78c-.98-.8-2.11-1.46-3.38-1.89a10.86 10.86 0 0 0-3.7-.57l-8.95-79.99 136.59-43.46c.34.81.78 1.59 1.31 2.29Zm-155.35 393.02c-.15-.05-.31-.09-.46-.13l16.35-151.85 10.56-98.14a10.9 10.9 0 0 0 6.4-1.98l125.43 147.68L565.47 1008a10.818 10.818 0 0 0-5.23-3.81Zm168.99-389.87a10.852 10.852 0 0 0 5.85-8.3l153.24 5.34c.05.92.23 1.81.5 2.67l-133.26 56.52-26.33-56.23Zm177.84-11.05a10.79 10.79 0 0 0-4.4-2.83c-3.42-1.16-7-.51-9.75 1.41l-34.9-40.97 175.34-58.77c.23.5.5.98.8 1.44L956 564.88l-48.93 38.39Zm125.55-108.15c-.4 1.73-.35 3.47.06 5.1L856.6 559.23 707.56 384.28c.85-.87 1.57-1.88 2.1-3.04l322.95 113.88ZM693.51 385.57l-76.21 132.1-80.61-64.57c.5-.76.92-1.58 1.23-2.48.76-2.24.74-4.56.1-6.66l152.14-62.24c.79 1.51 1.93 2.84 3.36 3.85Zm-158.07 69.1 80.85 64.76-39.9 69.17c-.34-.15-.69-.29-1.05-.42-1.86-.63-3.77-.72-5.57-.37l-38.16-130.58a11.03 11.03 0 0 0 3.82-2.56Zm46.71 147.31c.18-.52.3-1.05.39-1.57l130.9 3.56c-.06 1.02.02 2.03.23 3l-136.21 43.34-4.59-41.01c4.13-.39 7.85-3.14 9.27-7.32Zm-20.5 422.21 46.17 83.73-83.56 42.03c-.88-3.2-3.22-5.94-6.5-7.23l37.56-117.45c2.22.3 4.42-.11 6.34-1.08Zm147.84 368.33L601.54 1263l47.4-63.08c.73.47 1.52.87 2.39 1.16 1.79.61 3.62.72 5.36.42l54.98 189.86c-.77.3-1.5.7-2.18 1.17Zm-51.17-212.04c-2.72-.92-5.55-.7-7.98.4l-39.76-72.11 191.04-96.09c.41.66.9 1.27 1.45 1.83l-142.18 167.25c-.78-.53-1.64-.97-2.57-1.28Zm142.23-177.05c-.32.94-.49 1.89-.55 2.83l-232.44 7.22c-.12-1.31-.48-2.58-1.05-3.75l153.31-108.41 83.26 98.02c-1.1 1.13-1.99 2.5-2.53 4.1ZM594.61 750.79c.88-.9 1.62-1.96 2.16-3.17l219.22 74.43a10.85 10.85 0 0 0 1.16 7.96l-97 68.59-125.54-147.81Zm438.85-257.99-.68.25-322.44-113.7c.6-2.38.36-4.8-.55-6.92l115.03-62.34 209.56 181.15c-.35.49-.65 1.01-.92 1.56ZM710.29 369.86l89.14-68.76c1.19 1.28 2.7 2.29 4.47 2.89 3.98 1.35 8.19.26 11.03-2.46l8.27 7.15-112.9 61.18Zm-13.26-173.91c.81.28 1.63.44 2.45.52l-.37 96.78-113.18.58c-.14-2.03-.85-3.97-2.02-5.61l109.11-94.72c1.11 1.07 2.46 1.92 4.02 2.45ZM583.28 301.7l92.42 60.44-102.1-56.81c3.66.51 7.3-.91 9.67-3.63Zm106.57 70.61c-.13.29-.25.58-.35.89a10.84 10.84 0 0 0-.1 6.66L537.26 442.1c-1.25-2.4-3.38-4.34-6.14-5.27-2.43-.83-4.95-.74-7.19.07l-96.42-205.31c1.34-.85 2.49-1.99 3.36-3.38l258.97 144.1ZM414.48 230.56c1.05.93 2.3 1.67 3.71 2.15 2.56.87 5.21.72 7.54-.21l96.39 205.26c-.66.39-1.28.84-1.85 1.36L353.5 288.36l60.99-57.79Zm104.44 210.05c-.67.89-1.22 1.9-1.59 3.02-.04.13-.07.25-.11.38L255.81 391.4c.27-2.95-.7-5.85-2.57-8.04l98.79-93.62 166.89 150.87Zm-267.13-58.65c-.96-.77-2.07-1.41-3.31-1.83l39.06-137.56c3.43.64 6.88-.41 9.35-2.67l53.64 48.49-98.74 93.57Zm33.82-139.94-38.9 137 32.31-323.93 8.92 166.04c-3.91.58-7.36 3.26-8.71 7.26-1.88 5.54.97 11.54 6.38 13.63Zm-30.33 151.9c.06-.18.1-.37.16-.55l261.37 52.6c-.35 3.27.81 6.48 3.06 8.77l-60.11 71.2-205.11-130.56c.24-.47.46-.95.63-1.46Zm266.13 62.12c.82.57 1.73 1.04 2.72 1.38 1.86.63 3.77.72 5.57.37l38.16 130.58c-1.79.71-3.38 1.89-4.59 3.45l-101.78-64.79 59.93-70.99Zm42.62 149.99c1.16 1.21 2.62 2.17 4.32 2.74.83.28 1.67.45 2.5.52l4.66 41.63-98.85 31.45c-.3-.59-.65-1.16-1.05-1.69l88.43-74.66Zm-87.29 86.01 99.9 47.42c-.03.08-.07.15-.09.24-1.93 5.69 1.11 11.86 6.8 13.8.44.15.89.26 1.34.35l-26.89 249.83c-.74-.07-1.48-.07-2.2.01l-84.31-306.41c2.33-1.01 4.3-2.82 5.46-5.23Zm70.13 327c1.21 2.61 3.43 4.75 6.37 5.75l.1.03-37.52 117.34c-3.9-.76-7.84.69-10.34 3.62l-106.08-74.6 147.46-52.13Zm-42.54 128.38c-.34.6-.64 1.23-.87 1.91-.2.59-.33 1.18-.43 1.77l-271.22-18.18c-.02-.81-.13-1.61-.32-2.38L397.08 1072l107.24 75.42Zm-273.08-10.72c.2-.59.33-1.18.43-1.77l271.22 18.18c.07 2.52 1.01 4.93 2.64 6.82l-113.55 118.04-162.15-138.5c.59-.83 1.07-1.76 1.41-2.77Zm275.74 24.62c.96.76 2.05 1.39 3.28 1.81.26.09.52.15.78.22l-.62 207.11c-2.49.22-4.82 1.3-6.61 3.04l-110.3-94.21 113.47-117.96Zm-2.77 228.13c1.04.92 2.28 1.65 3.68 2.13 1.67.57 3.39.69 5.02.46l15.96 67.17-140.81 44.32c-.35-.99-.85-1.93-1.48-2.78l117.62-111.3Zm-121.28 127.32L508.2 1685.7l-134 88.18c-1.24-1.5-2.89-2.7-4.87-3.37-.74-.25-1.49-.41-2.24-.5l11.08-251.97c1.69-.05 3.32-.49 4.78-1.27Zm-6.81 267.54c.15-.45.27-.91.36-1.37l211.52 23.19c-.01.62.04 1.23.13 1.83l-198.67 49.5-19.77-66.49c2.92-1.11 5.34-3.47 6.43-6.67Zm70.64 272.95c-1.65.66-3.14 1.73-4.3 3.12l-220.95-152.12c.74-.94 1.34-2.01 1.74-3.2.48-1.41.65-2.85.55-4.25l164.28-40.93 58.68 197.39Zm-230.13-145.47c1.27-.46 2.45-1.15 3.48-2.05l221.21 152.29c-.32.57-.6 1.17-.82 1.81-.54 1.6-.68 3.24-.49 4.81l-144.42 31.39-78.96-188.26Zm223.81 158.83c.54 1.71 1.51 3.28 2.81 4.54l-97.88 122.28c-.46-.23-.93-.44-1.42-.61-2.6-.88-5.31-.72-7.66.26l-39.92-95.16 144.06-31.31Zm-92.8 128.34c-.17-.15-.36-.3-.55-.44l97.73-122.1c.76.5 1.58.92 2.48 1.22 2.36.8 4.79.74 6.98 0l12.87 28.94-119.52 92.39Zm108.48-122.14c2.26-1.27 4.08-3.33 4.98-5.98.87-2.56.72-5.22-.21-7.55l185.56-95.31-177.65 137.33-12.68-28.49Zm196.8-125.23-37.03-101.54 30.28-40.16c.69.42 1.42.78 2.22 1.05.91.31 1.83.48 2.75.54l3.3 139.82c-.51.06-1.01.15-1.51.28Zm-8.36-142.9-29.49 39.12-11.55-31.67c2.57-1.22 4.66-3.42 5.65-6.33.41-1.21.58-2.44.57-3.65l31.5-3.36a10.92 10.92 0 0 0 3.33 5.89Zm-51.33-11.67-82.16-110.81 54.22-35.68c1.25 1.57 2.95 2.82 4.99 3.51 1.38.47 2.79.64 4.16.55l21.8 141.17c-1.06.27-2.07.69-3 1.25Zm-15.96-163.57c-1.67-.57-3.39-.7-5.03-.46l-40.98-172.42 174.35-54.88a10.87 10.87 0 0 0 3.68 4.63l-130.92 223.59c-.36-.17-.73-.32-1.11-.45Zm139.9-242.74c-1.21-.17-2.42-.14-3.58.09l-54.97-189.83c1.07-.4 2.07-.97 2.97-1.69l81.12 84.43-25.54 107Zm-54.13-192.82c.89-1.03 1.61-2.24 2.07-3.62 1.39-4.08.2-8.41-2.68-11.24l142.15-167.22c.56.39 1.16.74 1.81 1.03l-63.14 264.54-80.22-83.5Zm141.56-199.86-83.14-97.89 96.85-68.49c1.23 1.44 2.84 2.58 4.76 3.23.52.18 1.04.3 1.57.39l-13.86 160.78c-2.23.01-4.38.72-6.17 1.97ZM831 814.66l65.13-191.84 39.09 35.95-103.51 156.24c-.23-.12-.46-.25-.71-.35Zm66.67-193.15c5.07.71 10.1-2.24 11.8-7.27 1.11-3.27.57-6.69-1.16-9.39l127.11-99.73c.31.32.64.62 1 .9L936.35 657.07l-38.67-35.57Zm142.8-134.47c-1.79.47-3.43 1.39-4.78 2.68L826.7 309.06l160.9-87.19c1.28 1.92 3.18 3.46 5.54 4.26 1.42.48 2.87.65 4.27.55l43.06 260.36Zm-60.91-263.1-154.48 83.72-8.84-7.64c.6-.85 1.1-1.79 1.45-2.83.76-2.25.74-4.57.09-6.68l161.78-66.56Zm-414.83 67.31c-1.17 3.66-.3 7.48 1.99 10.25l-116.45-64.8 114.46 54.55Zm-153.81-67.33c.27 1.89 1.02 3.68 2.19 5.17L352 287l-53.76-48.6c.67-.89 1.22-1.9 1.59-3.02.37-1.09.55-2.2.58-3.29l110.52-8.17ZM14.22 21.22c.51-.16 1.01-.36 1.49-.59l146.78 238.2-62.96 118.01c-.19-.07-.37-.16-.56-.22-1.83-.62-3.71-.72-5.48-.39L14.22 21.22Zm233.5 379.73c2.31-.6 4.38-1.95 5.86-3.87L458.46 527.5 313 699.8c-.82-.57-1.73-1.04-2.72-1.38-1.52-.52-3.08-.67-4.58-.51l-57.98-296.95Zm69.66 305.33c-.06-.27-.13-.54-.22-.8l245.08-101.92c.16.31.34.61.54.91l-88.54 74.75c-1.07-.96-2.34-1.73-3.78-2.22-5.69-1.93-11.86 1.11-13.79 6.8a10.98 10.98 0 0 0-.56 3.93l-138.73 18.54Zm147.05-8.41c1.67.4 3.35.38 4.94.02l84.25 306.18c-3.25.98-6 3.45-7.18 6.91-.53 1.56-.67 3.15-.5 4.68l-164.48 33.64c-.96-3.17-3.36-5.86-6.7-7.07l89.67-344.37Zm-96.86 364.89c4.34 1.47 8.97.04 11.77-3.25l15.74 11.07-162.16 57.33 129.09-69.43c1.28 1.94 3.19 3.49 5.56 4.29Zm-141.65 80.11c.96-.49 1.84-1.12 2.62-1.88l162.06 138.42-71.16 73.97c-.96-.76-2.05-1.39-3.28-1.8-2.22-.75-4.51-.74-6.59-.12l-83.65-208.6ZM318 1371.34a10.86 10.86 0 0 0 4.96-5.96c.16-.48.28-.96.37-1.45l177.2 17.29c-.01 2.47.82 4.85 2.32 6.76l-117.57 111.26c-1.1-1.03-2.42-1.85-3.93-2.37-2.37-.8-4.81-.73-7.01.02l-56.33-125.55Zm39.83 416.84c1.19 1.29 2.72 2.32 4.5 2.92 1.81.62 3.67.72 5.43.4l19.75 66.44-164.03 40.87c-.28-1.07-.72-2.09-1.3-3.02l135.65-107.61Zm-163.88 341.7c.29-.54.55-1.1.76-1.7.48-1.42.65-2.87.55-4.27l99.14-21.55 40.13 95.67c-1.31.86-2.44 2-3.29 3.37l-137.28-71.53Zm157.08 74.7a10.99 10.99 0 0 0-2-4.14l118.98-91.97 32.36 72.74c-2.26 1.27-4.09 3.33-4.98 5.98-.4 1.17-.57 2.36-.57 3.54l-143.79 13.86Zm159.75-23.49c-.51-.27-1.04-.51-1.6-.7-2.36-.8-4.79-.73-6.98 0l-32.56-73.19 178.1-137.67c.36.39.76.74 1.18 1.08l-138.14 210.48Zm135.39-389.68a10.799 10.799 0 0 0-4.57 5.75c-.41 1.21-.58 2.44-.57 3.65l-31.5 3.36c-.74-3.67-3.35-6.86-7.16-8.15-1.38-.47-2.79-.64-4.16-.55l-21.8-141.17c.44-.11.87-.24 1.28-.4l68.46 137.52Zm-63.44-153.83a11.06 11.06 0 0 0-2.61-2.68l130.92-223.59c.36.17.73.32 1.11.45 5.55 1.89 11.56-.98 13.64-6.41l172.94 48.47c-.4 2.2-.11 4.41.76 6.36l-316.76 177.4Zm319.91-190.3-157.72-164.17 62.42-261.51 98.65 423.87c-1.21.4-2.34 1.01-3.34 1.81ZM836.17 819.5c-.68-1.29-1.63-2.44-2.79-3.38l103.33-155.97 87.94 80.88-188.49 78.47Zm189.46-80.3-87.8-80.75 100.25-151.32c.52.28 1.06.53 1.64.73.58.2 1.17.33 1.75.43l-15.85 230.92Zm2.16-2.15 15.69-228.63c4.43-.11 8.53-2.92 10.04-7.37 1.54-4.55-.1-9.41-3.73-12.16l144.31-53.35c.8 1.66 2.01 3.12 3.56 4.21l-169.88 297.3Z"/></svg>